<?xml version="1.0" encoding="UTF-8" standalone="no"?>
<!-- Created with sK1/UniConvertor (http://sk1project.org/) -->
<svg xmlns:dc="http://purl.org/dc/elements/1.1/" xmlns:cc="http://creativecommons.org/ns#" xmlns:rdf="http://www.w3.org/1999/02/22-rdf-syntax-ns#" xmlns:svg="http://www.w3.org/2000/svg" xmlns="http://www.w3.org/2000/svg" xmlns:sodipodi="http://sodipodi.sourceforge.net/DTD/sodipodi-0.dtd" xmlns:inkscape="http://www.inkscape.org/namespaces/inkscape" id="svg2" sodipodi:docname="Computador.svg" version="1.1" inkscape:version="0.91pre3 r13670" viewBox="0 0 504.08588 329.68792" width="504.08588" height="329.68793" style="fill-rule:evenodd">
  <defs id="defs60"/>
  <sodipodi:namedview id="namedview82" bordercolor="#666666" inkscape:pageshadow="2" guidetolerance="10" pagecolor="#ffffff" gridtolerance="10" inkscape:window-maximized="0" inkscape:zoom="0.22425731" objecttolerance="10" borderopacity="1" inkscape:current-layer="svg2" inkscape:cx="341.92763" inkscape:cy="345.85718" inkscape:window-y="0" inkscape:window-x="0" inkscape:window-width="734" showgrid="false" inkscape:pageopacity="0" inkscape:window-height="645" fit-margin-top="0" fit-margin-left="0" fit-margin-right="0" fit-margin-bottom="0"/>
  <path id="path16" style="fill:#cccccc;stroke:#1f211d;stroke-width:2.0000999;stroke-linejoin:round" d="m 109.53003,312.90649 2.0562,10.005 c 0,0 57.901,6.2676 148.14,5.7455 90.241,-0.52207 143.19,-5.7455 143.19,-5.7455 l 3.9776,-10.005" inkscape:connector-curvature="0"/>
  <path id="path34" style="fill:#cccccc;stroke:#1f211d;stroke-width:2.0000999;stroke-linejoin:round" d="m 152.87003,186.58649 0.62622,4.445 -48.15,47.606 c 0,0 -15.449,3.6158 -40.928,3.2139 -25.479,-0.40191 -53.366,-2.2085 -53.366,-2.2085 l -7.4233001,-8.0354 c 0,0 -2.6289,-88.623 -2.6289,-114.21 0,-25.591004 0.78231,-82.779004 0.78231,-82.779004 l 8.4672001,-11.309 c 0,0 50.758,-13.056 68.814,-15.0650005 18.056,-2.0082 30.095,-4.0164 30.095,-4.0164 l 36.513,1.406 c 0,0 4.947,92.8160005 4.8602,94.4550045" inkscape:connector-curvature="0"/>
  <path id="path36" style="fill:none;stroke:#1f211d;stroke-width:2.0000999;stroke-linejoin:round" d="m 10.25203,23.310486 c 0,0 15.248,-1.406 38.721,-1.0041 23.473,0.4019 54.341,0.57682 54.341,0.57682 l 1.8346,9.8686 c 0.14821,0.79713 1.4968,189.140004 1.3833,193.840004 -0.11349,4.696 -2.35,12.299 -2.35,12.299" inkscape:connector-curvature="0"/>
  <path id="path38" style="fill:none;stroke:#1f211d;stroke-width:2.0000999;stroke-linejoin:round" d="m 106.53003,226.58649 c 0,0 -24.938,2.3099 -50.237,2.832 -25.299,0.52207 -52.6630001,2.1898 -52.6630001,2.1898" inkscape:connector-curvature="0"/>
  <path id="path40" style="fill:none;stroke:#1f211d;stroke-width:2.0000999;stroke-linejoin:round" d="m 1.7850299,34.619486 c 0,0 27.3850001,-0.26037 49.0330001,-1.0441 21.648,-0.78378 54.331,-0.82383 54.331,-0.82383" inkscape:connector-curvature="0"/>
  <path id="path42" style="fill:none;stroke:#1f211d;stroke-width:2.0000999;stroke-linejoin:round" d="m 105.15003,32.751486 40.75,-22.9370005 -0.23,-4.18 -42.36,17.2490005" inkscape:connector-curvature="0"/>
  <g id="g44" transform="matrix(1.3352,0,0,1.3352,-58.81297,-431.10351)">
    <path id="path46" style="fill:none;stroke:#1f211d;stroke-width:1.49800003;stroke-linejoin:round" d="m 51.275,431.64 40.688,0 0,11.343 -40.688,0 0,-11.343 z" inkscape:connector-curvature="0"/>
    <path id="path48" style="fill:#1f211d;stroke:#1f211d;stroke-width:1.49800003;stroke-linejoin:round" d="m 54.252,434.77 34.138,0 0,1.369 -34.138,0 0,-1.369 z" inkscape:connector-curvature="0"/>
    <path id="path50" style="fill:#1f211d;stroke:#1f211d;stroke-width:1.49800003;stroke-linejoin:round" d="m 77.991,436.41 -11.393,0 0,2.347 11.393,0 0,-2.347 z" inkscape:connector-curvature="0"/>
  </g>
  <g id="g52" transform="matrix(1.3352,0,0,1.3352,-58.81297,-431.10351)">
    <path id="path54" style="fill:none;stroke:#1f211d;stroke-width:1.49800003;stroke-linejoin:round" d="m 52.17,405.05 63.905,0 c 0.878,0 1.59,0.701 1.59,1.564 l 0,18.97 c 0,0.864 -0.712,1.565 -1.59,1.565 l -63.905,0 c -0.8774,0 -1.5896,-0.701 -1.5896,-1.565 l 0,-18.97 c 0,-0.863 0.7122,-1.564 1.5896,-1.564 z" inkscape:connector-curvature="0"/>
    <path id="path56" style="fill:none;stroke:#1f211d;stroke-width:1.49800003;stroke-linejoin:round" d="m 53.557,408.18 60.138,0 0,9.778 -60.138,0 0,-9.778 z" inkscape:connector-curvature="0"/>
    <path id="path58" style="fill:none;stroke:#1f211d;stroke-width:1.49800003;stroke-linejoin:round" d="m 111,421.24 -9.924,0 0,1.408 9.924,0 0,-1.408 z" inkscape:connector-curvature="0"/>
  </g>
  <path id="path60" style="fill:none;stroke:#1f211d;stroke-width:2.0000999;stroke-linejoin:round" d="m 49.59603,184.92649 c -4.1552,0 -7.5281,3.5036 -7.5281,7.8177 0,4.3154 3.3729,7.8177 7.5281,7.8177 4.1554,0 7.5283,-3.5023 7.5283,-7.8177 0,-4.3141 -3.3729,-7.8177 -7.5283,-7.8177 z" inkscape:connector-curvature="0"/>
  <path id="path74" style="fill:none;stroke:#1f211d;stroke-width:2.0000999;stroke-linejoin:round" d="m 106.53003,226.58649 46.654,-37.776" inkscape:connector-curvature="0"/>
  <path id="path78" style="fill:none;stroke:#1f211d;stroke-width:1.50010002;stroke-linejoin:round" d="m 49.66503,205.88649 c -2.0776,0 -3.7641,1.7505 -3.7641,3.9082 0,2.1577 1.6865,3.9095 3.7641,3.9095 2.0776,0 3.7641,-1.7518 3.7641,-3.9095 0,-2.1577 -1.6865,-3.9082 -3.7641,-3.9082 z" inkscape:connector-curvature="0"/>
  <path id="path24" style="fill:#cccccc;stroke:#1f211d;stroke-width:2.0000999;stroke-linejoin:round" d="m 211.34003,194.51649 c 0,0 -21.725,24.038 44.48,25.644 66.206,1.6063 57.501,-21.812 55.033,-25.469" inkscape:connector-curvature="0"/>
  <path id="path8" style="fill:#cccccc;stroke:#1f211d;stroke-width:2.0000999;stroke-linejoin:round" d="m 406.89003,312.90649 -20.84,-60.81 c 0,0 -211.37,7.8178 -247.56,2.0269 -16.044,17.505 -24.363,49.031 -28.954,58.777 0,0 89.759,10.134 163.59,10.134 73.834,0 133.77,-10.134 133.77,-10.134 z" inkscape:connector-curvature="0"/>
  <path id="path10" style="fill:none;stroke:#1f211d;stroke-width:2.0000999;stroke-linejoin:round" d="m 391.96003,304.62649 -12.779,-45.697 -39.122,2.0883 7.042,46.22 44.86,-2.6117 z" inkscape:connector-curvature="0"/>
  <path id="path12" style="fill:none;stroke:#1f211d;stroke-width:2.0000999;stroke-linejoin:round" d="m 339.28003,309.06649 -7.042,-48.832 -24.256,1.3058 0.78244,46.482 30.515,1.0441 z" inkscape:connector-curvature="0"/>
  <path id="path14" style="fill:none;stroke:#1f211d;stroke-width:2.0000999;stroke-linejoin:round" d="m 302.76003,309.84649 0.52207,-48.31 c 0,0 -145.27,3.6558 -160.92,-1.8279 -10.433,16.453 -20.343,44.914 -20.343,44.914 0,0 136.79,10.387 180.74,5.2234 z" inkscape:connector-curvature="0"/>
  <path id="path18" style="fill:#cccccc;stroke:#1f211d;stroke-width:2.0000999;stroke-linejoin:round" d="m 376.83003,190.25649 c 0,0 3.3901,-56.404 3.6505,-97.662004 0.2617,-41.258 -4.433,-88.2620005 -4.433,-88.2620005 0,0 -52.163,-1.8279 -109.54,-3.1338 -57.379,-1.30589997 -108.5,4.1779 -109.02,6.2675 -0.52207,2.0883 -4.955,54.0540005 -7.042,94.2680045 -2.087,40.213 -1.3045,84.083 -1.3045,84.083 0,0 48.772,10.968 108.76,10.445 59.986,-0.52207 118.93,-6.0058 118.93,-6.0058 z" inkscape:connector-curvature="0"/>
  <path id="path20" style="fill:#ffffff;stroke:#1f211d;stroke-width:2.0000999;stroke-linejoin:round" d="m 363.79003,162.31649 c 0,0 3.1298,-30.814 3.1298,-70.505004 0,-39.692 -2.6077,-73.117 -2.6077,-73.117 0,0 -35.21,-2.8721 -97.805,-4.7 -62.595,-1.8279 -99.108,1.3058 -99.108,1.3058 0,0 0.52073,31.858 -1.3045,64.238 -1.8252,32.381004 -1.3045,77.555004 -1.3045,77.555004 0,0 59.988,9.4013 104.33,7.0513 44.339,-2.35 94.675,-1.8279 94.675,-1.8279 z" inkscape:connector-curvature="0"/>
  <path id="path22" style="fill:none;stroke:#1f211d;stroke-width:2.0000999;stroke-linejoin:round" d="m 358.32003,185.29649 1.5649,-10.445 c 0,0 -19.821,-0.78378 -21.648,0.52207 -1.8252,1.3058 0.78244,11.229 0.78244,11.229 l 19.301,-1.3058 z" inkscape:connector-curvature="0"/>
  <path id="path26" style="fill:#cccccc;stroke:#1f211d;stroke-width:2.0000999;stroke-linejoin:round" d="m 502.59003,278.41649 c 0,0 -2.4074,-20.086 -25.078,-20.086 -22.6706,0 -26.683,18.078 -26.683,18.078 l -0.60219,15.467 c 0,0 1.4047,13.86 22.07,14.462 20.664,0.60219 27.686,-10.044 29.691,-15.467 2.0068,-5.4224 0.60218,-12.454 0.60218,-12.454 z" inkscape:connector-curvature="0"/>
  <path id="path28" style="fill:none;stroke:#1f211d;stroke-width:2.0000999;stroke-linejoin:round" d="m 502.87003,280.35649 c 0,0 -3.4903,-9.9715 -21.947,-11.981 -18.458,-2.0082 -28.03,-0.61554 -30.266,12.448" inkscape:connector-curvature="0"/>
  <path id="path30" style="fill:none;stroke:#1f211d;stroke-width:2.0000999;stroke-linejoin:round" d="m 477.51003,258.32649 c -0.60219,-2.0095 7.8244,-12.655 -7.2222,-20.691 -15.047,-8.034 -25.078,-7.6322 -25.078,-7.6322 0,0 -19.261,-1.0041 -15.649,-5.4237 3.6118,-4.4196 6.4198,-7.8338 -14.846,-12.454 -21.266,-4.6212 -61.191,0.60219 -76.84,-5.0218 -15.649,-5.6253 -11.013,-13.255 -11.013,-13.255" inkscape:connector-curvature="0"/>
  <path id="path32" style="fill:none;stroke:#1f211d;stroke-width:2.0000999;stroke-linejoin:round" d="m 337.58003,193.20649 c 0,0 16.348,11.288 4.3101,21.332 -12.037,10.044 -22.069,13.056 -22.069,13.056 0,0 -9.2291,6.2275 -1.6049,11.651 7.6241,5.4237 17.355,4.6613 14.497,14.583" inkscape:connector-curvature="0"/>
  <path id="path62" style="fill:none;stroke:#1f211d;stroke-width:2.0000999;stroke-linejoin:round" d="m 125.45003,295.42649 c 0,0 45.085,5.5505 93.857,5.0285 48.772,-0.52207 83.568,-0.52608 83.568,-0.52608 l 0.0975,-9.1396 c 0,0 -63.322,1.5716 -103.49,-0.51806 -40.165,-2.0883 -70.284,-4.1312 -70.284,-4.1312 l 4.1312,-9.3773 c 0,0 57.025,6.1968 90.93,6.1968 33.905,0 78.809,-1.3139 78.809,-1.3139 l 0.1135,-10.429 c 0,0 -33.801,3.1258 -72.923,3.1258 -39.122,0 -93.02,-5.5906 -93.02,-5.5906" inkscape:connector-curvature="0"/>
  <path id="path64" style="fill:none;stroke:#1f211d;stroke-width:2.0000999;stroke-linejoin:round" d="m 307.20003,298.09649 30.462,-0.25369 -1.6597,-11.514 -27.571,1.8373 -0.17625,-10.433 26.376,-0.90795 -1.402,-9.7218 -25.128,1.4928" inkscape:connector-curvature="0"/>
  <path id="path66" style="fill:none;stroke:#1f211d;stroke-width:2.0000999;stroke-linejoin:round" d="m 344.99003,293.40649 c 0,0 12.54,1.0415 23.495,-0.78645 10.954,-1.8279 19.261,-3.0496 19.261,-3.0496 l -2.8601,-10.229 c 0,0 -12.227,2.573 -18.877,3.748 -6.6521,1.175 -22.43,1.0442 -22.43,1.0442 l -1.4287,-9.3733 c 0,0 13.557,-0.67963 21.902,-1.4634 8.3465,-0.78378 17.899,-4.4543 17.899,-4.4543" inkscape:connector-curvature="0"/>
  <path id="path68" style="fill:none;stroke:#1f211d;stroke-width:2.0000999;stroke-linejoin:round" d="m 377.12003,305.49649 c 0,0 -10.213,-45.906 -9.432,-45.948 0.77977,-0.0427 -14.304,0.76375 -14.304,0.76375 l 7.285,46.141" inkscape:connector-curvature="0"/>
  <path id="path70" style="fill:none;stroke:#1f211d;stroke-width:2.0000999;stroke-linejoin:round" d="m 324.02003,308.54649 c 0,0 -2.7065,-47.721 -3.9122,-47.657" inkscape:connector-curvature="0"/>
  <path id="path72" style="fill:none;stroke:#1f211d;stroke-width:2.0000999;stroke-linejoin:round" d="m 281.98003,311.11649 3.8708,-49.198 -17.558,0.31378 -2.1564,37.824 -24.017,0.17225 6.4732,-37.724 -20.425,0.17892 -4.3462,37.715 c 0,0 -17.066,0.0561 -17.839,0.0467 -0.77309,-0.008 7.7897,-37.713 7.7897,-37.713 l -17.939,-0.0641 -8.1676,37.35 -13.076,-0.57414 9.2077,-36.924 c 0,0 -13.128,-0.30977 -13.874,-0.33514 -0.74506,-0.0254 -13.001,44.806 -13.001,44.806 l -18.426,-1.1977 17.262,-44.284" inkscape:connector-curvature="0"/>
  <path id="path76" style="fill:none;stroke:#1f211d;stroke-width:1.00020003;stroke-linejoin:round" d="m 358.67003,158.47649 c 0,0 2.9669,-29.203 2.9669,-66.820004 0,-37.617 -2.4728,-69.296 -2.4728,-69.296 0,0 -33.369,-2.7225 -92.693,-4.4543 -59.324,-1.7318 -93.929,1.2378 -93.929,1.2378 0,0 0.49404,30.192 -1.2364,60.88 -1.7291,30.689004 -1.2351,73.503004 -1.2351,73.503004 0,0 56.851,8.9086 98.872,6.6815 42.021,-2.2272 89.727,-1.7318 89.727,-1.7318 z" inkscape:connector-curvature="0"/>
  <path id="path80" style="fill:none;stroke:#2c2c2b;stroke-width:1.69990003;stroke-linejoin:round" d="m 470.00003,259.07649 0.65159,8.5615 12.085,0.96537 4.4209,-8.8125" inkscape:connector-curvature="0"/>
  <metadata id="metadata58">
    <rdf:RDF>
      <cc:Work>
        <dc:format>image/svg+xml</dc:format>
        <dc:type rdf:resource="http://purl.org/dc/dcmitype/StillImage"/>
        <cc:license rdf:resource="http://creativecommons.org/publicdomain/zero/1.0/"/>
        <dc:publisher>
          <cc:Agent rdf:about="http://openclipart.org/">
            <dc:title>Openclipart</dc:title>
          </cc:Agent>
        </dc:publisher>
        <dc:title>Ordenador</dc:title>
        <dc:date>2010-11-23T16:06:27</dc:date>
        <dc:description>Un viejo ordenador Pentrium 100 mhz de 1995.</dc:description>
        <dc:source>https://openclipart.org/detail/97939/ordenador-by-miutopia</dc:source>
        <dc:creator>
          <cc:Agent>
            <dc:title>miutopia</dc:title>
          </cc:Agent>
        </dc:creator>
        <dc:subject>
          <rdf:Bag>
            <rdf:li>clipart_issue</rdf:li>
            <rdf:li>computador</rdf:li>
            <rdf:li>computadora</rdf:li>
            <rdf:li>computer</rdf:li>
            <rdf:li>old</rdf:li>
            <rdf:li>ordena</rdf:li>
            <rdf:li>ordenador</rdf:li>
            <rdf:li>ordenata</rdf:li>
            <rdf:li>pc</rdf:li>
          </rdf:Bag>
        </dc:subject>
      </cc:Work>
      <cc:License rdf:about="http://creativecommons.org/publicdomain/zero/1.0/">
        <cc:permits rdf:resource="http://creativecommons.org/ns#Reproduction"/>
        <cc:permits rdf:resource="http://creativecommons.org/ns#Distribution"/>
        <cc:permits rdf:resource="http://creativecommons.org/ns#DerivativeWorks"/>
      </cc:License>
    </rdf:RDF>
  </metadata>
</svg>