<?xml version="1.0" encoding="UTF-8" standalone="no"?>
<svg
   xmlns:dc="http://purl.org/dc/elements/1.1/"
   xmlns:cc="http://creativecommons.org/ns#"
   xmlns:rdf="http://www.w3.org/1999/02/22-rdf-syntax-ns#"
   xmlns:svg="http://www.w3.org/2000/svg"
   xmlns="http://www.w3.org/2000/svg"
   xmlns:sodipodi="http://sodipodi.sourceforge.net/DTD/sodipodi-0.dtd"
   xmlns:inkscape="http://www.inkscape.org/namespaces/inkscape"
   width="377.17014mm"
   height="159.98419mm"
   viewBox="0 0 377.17014 159.98419"
   version="1.1"
   id="svg8"
   inkscape:version="1.0.2 (e86c870879, 2021-01-15)"
   sodipodi:docname="sqlite-2.2.1-release-critique-email.svg"
   inkscape:export-filename="/home/tlm/code/software-resurrection/www/exercise/sqlite/2.2.1/img/sqlite-2.2.1-release-critique-email.png"
   inkscape:export-xdpi="96"
   inkscape:export-ydpi="96">
  <defs
     id="defs2">
    <rect
       x="48.34"
       y="-0.169"
       width="172.82942"
       height="19.889945"
       id="rect2341" />
    <rect
       x="273.71793"
       y="36.333862"
       width="150.48805"
       height="84.246521"
       id="rect2235" />
    <rect
       x="284.52414"
       y="-19.30427"
       width="57.578091"
       height="7.267481"
       id="rect2216" />
    <rect
       x="124.37249"
       y="-104.523"
       width="104.05716"
       height="17.712564"
       id="rect2197" />
    <rect
       x="31.111864"
       y="46.329487"
       width="33.324169"
       height="12.710303"
       id="rect837" />
  </defs>
  <sodipodi:namedview
     id="base"
     pagecolor="#ffffff"
     bordercolor="#666666"
     borderopacity="1.0"
     inkscape:pageopacity="1"
     inkscape:pageshadow="2"
     inkscape:zoom="1"
     inkscape:cx="468.67175"
     inkscape:cy="418.03305"
     inkscape:document-units="mm"
     inkscape:current-layer="layer1"
     inkscape:document-rotation="0"
     showgrid="false"
     inkscape:window-width="2560"
     inkscape:window-height="1416"
     inkscape:window-x="3840"
     inkscape:window-y="0"
     inkscape:window-maximized="1"
     fit-margin-top="10"
     fit-margin-left="10"
     fit-margin-bottom="10"
     fit-margin-right="10" />
  <metadata
     id="metadata5">
    <rdf:RDF>
      <cc:Work
         rdf:about="">
        <dc:format>image/svg+xml</dc:format>
        <dc:type
           rdf:resource="http://purl.org/dc/dcmitype/StillImage" />
        <dc:title />
      </cc:Work>
    </rdf:RDF>
  </metadata>
  <g
     inkscape:label="Layer 1"
     inkscape:groupmode="layer"
     id="layer1"
     transform="translate(-37.844245,10.638441)">
    <g
       style="fill-rule:evenodd"
       id="g1733"
       transform="matrix(0.26458333,0,0,0.26458333,66.321897,28.939713)">
      <path
         id="path16-6"
         style="fill:#cccccc;stroke:#1f211d;stroke-width:2.0001;stroke-linejoin:round"
         d="m 109.53003,312.90649 2.0562,10.005 c 0,0 57.901,6.2676 148.14,5.7455 90.241,-0.52207 143.19,-5.7455 143.19,-5.7455 l 3.9776,-10.005"
         inkscape:connector-curvature="0" />
      <path
         id="path34-0"
         style="fill:#cccccc;stroke:#1f211d;stroke-width:2.0001;stroke-linejoin:round"
         d="m 152.87003,186.58649 0.62622,4.445 -48.15,47.606 c 0,0 -15.449,3.6158 -40.928,3.2139 -25.479,-0.40191 -53.366,-2.2085 -53.366,-2.2085 l -7.4233001,-8.0354 c 0,0 -2.6289,-88.623 -2.6289,-114.21 0,-25.591004 0.78231,-82.779004 0.78231,-82.779004 l 8.4672001,-11.309 c 0,0 50.758,-13.056 68.814,-15.0650005 18.056,-2.0082 30.095,-4.0164 30.095,-4.0164 l 36.513,1.406 c 0,0 4.947,92.8160005 4.8602,94.4550045"
         inkscape:connector-curvature="0" />
      <path
         id="path36-6"
         style="fill:none;stroke:#1f211d;stroke-width:2.0001;stroke-linejoin:round"
         d="m 10.25203,23.310486 c 0,0 15.248,-1.406 38.721,-1.0041 23.473,0.4019 54.341,0.57682 54.341,0.57682 l 1.8346,9.8686 c 0.14821,0.79713 1.4968,189.140004 1.3833,193.840004 -0.11349,4.696 -2.35,12.299 -2.35,12.299"
         inkscape:connector-curvature="0" />
      <path
         id="path38-2"
         style="fill:none;stroke:#1f211d;stroke-width:2.0001;stroke-linejoin:round"
         d="m 106.53003,226.58649 c 0,0 -24.938,2.3099 -50.237,2.832 -25.299,0.52207 -52.6630001,2.1898 -52.6630001,2.1898"
         inkscape:connector-curvature="0" />
      <path
         id="path40-6"
         style="fill:none;stroke:#1f211d;stroke-width:2.0001;stroke-linejoin:round"
         d="m 1.7850299,34.619486 c 0,0 27.3850001,-0.26037 49.0330001,-1.0441 21.648,-0.78378 54.331,-0.82383 54.331,-0.82383"
         inkscape:connector-curvature="0" />
      <path
         id="path42-1"
         style="fill:none;stroke:#1f211d;stroke-width:2.0001;stroke-linejoin:round"
         d="m 105.15003,32.751486 40.75,-22.9370005 -0.23,-4.18 -42.36,17.2490005"
         inkscape:connector-curvature="0" />
      <g
         id="g44"
         transform="matrix(1.3352,0,0,1.3352,-58.81297,-431.10351)">
        <path
           id="path46-8"
           style="fill:none;stroke:#1f211d;stroke-width:1.498;stroke-linejoin:round"
           d="m 51.275,431.64 h 40.688 v 11.343 H 51.275 Z"
           inkscape:connector-curvature="0" />
        <path
           id="path48-7"
           style="fill:#1f211d;stroke:#1f211d;stroke-width:1.498;stroke-linejoin:round"
           d="M 54.252,434.77 H 88.39 v 1.369 H 54.252 Z"
           inkscape:connector-curvature="0" />
        <path
           id="path50-9"
           style="fill:#1f211d;stroke:#1f211d;stroke-width:1.498;stroke-linejoin:round"
           d="M 77.991,436.41 H 66.598 v 2.347 h 11.393 z"
           inkscape:connector-curvature="0" />
      </g>
      <g
         id="g52"
         transform="matrix(1.3352,0,0,1.3352,-58.81297,-431.10351)">
        <path
           id="path54-2"
           style="fill:none;stroke:#1f211d;stroke-width:1.498;stroke-linejoin:round"
           d="m 52.17,405.05 h 63.905 c 0.878,0 1.59,0.701 1.59,1.564 v 18.97 c 0,0.864 -0.712,1.565 -1.59,1.565 H 52.17 c -0.8774,0 -1.5896,-0.701 -1.5896,-1.565 v -18.97 c 0,-0.863 0.7122,-1.564 1.5896,-1.564 z"
           inkscape:connector-curvature="0" />
        <path
           id="path56-0"
           style="fill:none;stroke:#1f211d;stroke-width:1.498;stroke-linejoin:round"
           d="m 53.557,408.18 h 60.138 v 9.778 H 53.557 Z"
           inkscape:connector-curvature="0" />
        <path
           id="path58-2"
           style="fill:none;stroke:#1f211d;stroke-width:1.498;stroke-linejoin:round"
           d="m 111,421.24 h -9.924 v 1.408 H 111 Z"
           inkscape:connector-curvature="0" />
      </g>
      <path
         id="path60-3"
         style="fill:none;stroke:#1f211d;stroke-width:2.0001;stroke-linejoin:round"
         d="m 49.59603,184.92649 c -4.1552,0 -7.5281,3.5036 -7.5281,7.8177 0,4.3154 3.3729,7.8177 7.5281,7.8177 4.1554,0 7.5283,-3.5023 7.5283,-7.8177 0,-4.3141 -3.3729,-7.8177 -7.5283,-7.8177 z"
         inkscape:connector-curvature="0" />
      <path
         id="path74-7"
         style="fill:none;stroke:#1f211d;stroke-width:2.0001;stroke-linejoin:round"
         d="m 106.53003,226.58649 46.654,-37.776"
         inkscape:connector-curvature="0" />
      <path
         id="path78-5"
         style="fill:none;stroke:#1f211d;stroke-width:1.5001;stroke-linejoin:round"
         d="m 49.66503,205.88649 c -2.0776,0 -3.7641,1.7505 -3.7641,3.9082 0,2.1577 1.6865,3.9095 3.7641,3.9095 2.0776,0 3.7641,-1.7518 3.7641,-3.9095 0,-2.1577 -1.6865,-3.9082 -3.7641,-3.9082 z"
         inkscape:connector-curvature="0" />
      <path
         id="path24-9"
         style="fill:#cccccc;stroke:#1f211d;stroke-width:2.0001;stroke-linejoin:round"
         d="m 211.34003,194.51649 c 0,0 -21.725,24.038 44.48,25.644 66.206,1.6063 57.501,-21.812 55.033,-25.469"
         inkscape:connector-curvature="0" />
      <path
         id="path8-2"
         style="fill:#cccccc;stroke:#1f211d;stroke-width:2.0001;stroke-linejoin:round"
         d="m 406.89003,312.90649 -20.84,-60.81 c 0,0 -211.37,7.8178 -247.56,2.0269 -16.044,17.505 -24.363,49.031 -28.954,58.777 0,0 89.759,10.134 163.59,10.134 73.834,0 133.77,-10.134 133.77,-10.134 z"
         inkscape:connector-curvature="0" />
      <path
         id="path10-2"
         style="fill:none;stroke:#1f211d;stroke-width:2.0001;stroke-linejoin:round"
         d="m 391.96003,304.62649 -12.779,-45.697 -39.122,2.0883 7.042,46.22 44.86,-2.6117 z"
         inkscape:connector-curvature="0" />
      <path
         id="path12-8"
         style="fill:none;stroke:#1f211d;stroke-width:2.0001;stroke-linejoin:round"
         d="m 339.28003,309.06649 -7.042,-48.832 -24.256,1.3058 0.78244,46.482 30.515,1.0441 z"
         inkscape:connector-curvature="0" />
      <path
         id="path14-9"
         style="fill:none;stroke:#1f211d;stroke-width:2.0001;stroke-linejoin:round"
         d="m 302.76003,309.84649 0.52207,-48.31 c 0,0 -145.27,3.6558 -160.92,-1.8279 -10.433,16.453 -20.343,44.914 -20.343,44.914 0,0 136.79,10.387 180.74,5.2234 z"
         inkscape:connector-curvature="0" />
      <path
         id="path18-7"
         style="fill:#cccccc;stroke:#1f211d;stroke-width:2.0001;stroke-linejoin:round"
         d="m 376.83003,190.25649 c 0,0 3.3901,-56.404 3.6505,-97.662004 0.2617,-41.258 -4.433,-88.2620005 -4.433,-88.2620005 0,0 -52.163,-1.8279 -109.54,-3.1338 -57.379,-1.30589997 -108.5,4.1779 -109.02,6.2675 -0.52207,2.0883 -4.955,54.0540005 -7.042,94.2680045 -2.087,40.213 -1.3045,84.083 -1.3045,84.083 0,0 48.772,10.968 108.76,10.445 59.986,-0.52207 118.93,-6.0058 118.93,-6.0058 z"
         inkscape:connector-curvature="0" />
      <path
         id="path20-3"
         style="fill:#ffffff;stroke:#1f211d;stroke-width:2.0001;stroke-linejoin:round"
         d="m 363.79003,162.31649 c 0,0 3.1298,-30.814 3.1298,-70.505004 0,-39.692 -2.6077,-73.117 -2.6077,-73.117 0,0 -35.21,-2.8721 -97.805,-4.7 -62.595,-1.8279 -99.108,1.3058 -99.108,1.3058 0,0 0.52073,31.858 -1.3045,64.238 -1.8252,32.381004 -1.3045,77.555004 -1.3045,77.555004 0,0 59.988,9.4013 104.33,7.0513 44.339,-2.35 94.675,-1.8279 94.675,-1.8279 z"
         inkscape:connector-curvature="0" />
      <path
         id="path22-6"
         style="fill:none;stroke:#1f211d;stroke-width:2.0001;stroke-linejoin:round"
         d="m 358.32003,185.29649 1.5649,-10.445 c 0,0 -19.821,-0.78378 -21.648,0.52207 -1.8252,1.3058 0.78244,11.229 0.78244,11.229 l 19.301,-1.3058 z"
         inkscape:connector-curvature="0" />
      <path
         id="path26-1"
         style="fill:#cccccc;stroke:#1f211d;stroke-width:2.0001;stroke-linejoin:round"
         d="m 502.59003,278.41649 c 0,0 -2.4074,-20.086 -25.078,-20.086 -22.6706,0 -26.683,18.078 -26.683,18.078 l -0.60219,15.467 c 0,0 1.4047,13.86 22.07,14.462 20.664,0.60219 27.686,-10.044 29.691,-15.467 2.0068,-5.4224 0.60218,-12.454 0.60218,-12.454 z"
         inkscape:connector-curvature="0" />
      <path
         id="path28-2"
         style="fill:none;stroke:#1f211d;stroke-width:2.0001;stroke-linejoin:round"
         d="m 502.87003,280.35649 c 0,0 -3.4903,-9.9715 -21.947,-11.981 -18.458,-2.0082 -28.03,-0.61554 -30.266,12.448"
         inkscape:connector-curvature="0" />
      <path
         id="path30-9"
         style="fill:none;stroke:#1f211d;stroke-width:2.0001;stroke-linejoin:round"
         d="m 477.51003,258.32649 c -0.60219,-2.0095 7.8244,-12.655 -7.2222,-20.691 -15.047,-8.034 -25.078,-7.6322 -25.078,-7.6322 0,0 -19.261,-1.0041 -15.649,-5.4237 3.6118,-4.4196 6.4198,-7.8338 -14.846,-12.454 -21.266,-4.6212 -61.191,0.60219 -76.84,-5.0218 -15.649,-5.6253 -11.013,-13.255 -11.013,-13.255"
         inkscape:connector-curvature="0" />
      <path
         id="path32-3"
         style="fill:none;stroke:#1f211d;stroke-width:2.0001;stroke-linejoin:round"
         d="m 337.58003,193.20649 c 0,0 16.348,11.288 4.3101,21.332 -12.037,10.044 -22.069,13.056 -22.069,13.056 0,0 -9.2291,6.2275 -1.6049,11.651 7.6241,5.4237 17.355,4.6613 14.497,14.583"
         inkscape:connector-curvature="0" />
      <path
         id="path62-1"
         style="fill:none;stroke:#1f211d;stroke-width:2.0001;stroke-linejoin:round"
         d="m 125.45003,295.42649 c 0,0 45.085,5.5505 93.857,5.0285 48.772,-0.52207 83.568,-0.52608 83.568,-0.52608 l 0.0975,-9.1396 c 0,0 -63.322,1.5716 -103.49,-0.51806 -40.165,-2.0883 -70.284,-4.1312 -70.284,-4.1312 l 4.1312,-9.3773 c 0,0 57.025,6.1968 90.93,6.1968 33.905,0 78.809,-1.3139 78.809,-1.3139 l 0.1135,-10.429 c 0,0 -33.801,3.1258 -72.923,3.1258 -39.122,0 -93.02,-5.5906 -93.02,-5.5906"
         inkscape:connector-curvature="0" />
      <path
         id="path64-9"
         style="fill:none;stroke:#1f211d;stroke-width:2.0001;stroke-linejoin:round"
         d="m 307.20003,298.09649 30.462,-0.25369 -1.6597,-11.514 -27.571,1.8373 -0.17625,-10.433 26.376,-0.90795 -1.402,-9.7218 -25.128,1.4928"
         inkscape:connector-curvature="0" />
      <path
         id="path66-4"
         style="fill:none;stroke:#1f211d;stroke-width:2.0001;stroke-linejoin:round"
         d="m 344.99003,293.40649 c 0,0 12.54,1.0415 23.495,-0.78645 10.954,-1.8279 19.261,-3.0496 19.261,-3.0496 l -2.8601,-10.229 c 0,0 -12.227,2.573 -18.877,3.748 -6.6521,1.175 -22.43,1.0442 -22.43,1.0442 l -1.4287,-9.3733 c 0,0 13.557,-0.67963 21.902,-1.4634 8.3465,-0.78378 17.899,-4.4543 17.899,-4.4543"
         inkscape:connector-curvature="0" />
      <path
         id="path68-7"
         style="fill:none;stroke:#1f211d;stroke-width:2.0001;stroke-linejoin:round"
         d="m 377.12003,305.49649 c 0,0 -10.213,-45.906 -9.432,-45.948 0.77977,-0.0427 -14.304,0.76375 -14.304,0.76375 l 7.285,46.141"
         inkscape:connector-curvature="0" />
      <path
         id="path70-8"
         style="fill:none;stroke:#1f211d;stroke-width:2.0001;stroke-linejoin:round"
         d="m 324.02003,308.54649 c 0,0 -2.7065,-47.721 -3.9122,-47.657"
         inkscape:connector-curvature="0" />
      <path
         id="path72-4"
         style="fill:none;stroke:#1f211d;stroke-width:2.0001;stroke-linejoin:round"
         d="m 281.98003,311.11649 3.8708,-49.198 -17.558,0.31378 -2.1564,37.824 -24.017,0.17225 6.4732,-37.724 -20.425,0.17892 -4.3462,37.715 c 0,0 -17.066,0.0561 -17.839,0.0467 -0.77309,-0.008 7.7897,-37.713 7.7897,-37.713 l -17.939,-0.0641 -8.1676,37.35 -13.076,-0.57414 9.2077,-36.924 c 0,0 -13.128,-0.30977 -13.874,-0.33514 -0.74506,-0.0254 -13.001,44.806 -13.001,44.806 l -18.426,-1.1977 17.262,-44.284"
         inkscape:connector-curvature="0" />
      <path
         id="path76-5"
         style="fill:none;stroke:#1f211d;stroke-width:1.0002;stroke-linejoin:round"
         d="m 358.67003,158.47649 c 0,0 2.9669,-29.203 2.9669,-66.820004 0,-37.617 -2.4728,-69.296 -2.4728,-69.296 0,0 -33.369,-2.7225 -92.693,-4.4543 -59.324,-1.7318 -93.929,1.2378 -93.929,1.2378 0,0 0.49404,30.192 -1.2364,60.88 -1.7291,30.689004 -1.2351,73.503004 -1.2351,73.503004 0,0 56.851,8.9086 98.872,6.6815 42.021,-2.2272 89.727,-1.7318 89.727,-1.7318 z"
         inkscape:connector-curvature="0" />
      <path
         id="path80-0"
         style="fill:none;stroke:#2c2c2b;stroke-width:1.6999;stroke-linejoin:round"
         d="m 470.00003,259.07649 0.65159,8.5615 12.085,0.96537 4.4209,-8.8125"
         inkscape:connector-curvature="0" />
    </g>
    <ellipse
       style="fill:#000000;fill-opacity:1;stroke:none;stroke-width:0.529167;stroke-linecap:square;stroke-linejoin:bevel;stroke-miterlimit:4;stroke-dasharray:none;stroke-opacity:1"
       id="path1753"
       cx="134.59569"
       cy="59.364052"
       rx="16.451838"
       ry="23.009279" />
    <path
       style="fill:none;stroke:#000000;stroke-width:1.32292;stroke-linecap:butt;stroke-linejoin:miter;stroke-miterlimit:4;stroke-dasharray:none;stroke-opacity:1"
       d="m 134.73954,80.909041 c 0,0 -2.46407,27.832919 -1.84524,41.670209 0.49222,11.00622 2.32139,16.40577 2.32139,16.40577"
       id="path1834"
       sodipodi:nodetypes="csc" />
    <path
       style="fill:none;stroke:#000000;stroke-width:1.32292;stroke-linecap:round;stroke-linejoin:round;stroke-miterlimit:4;stroke-dasharray:none;stroke-opacity:1"
       d="m 143.19157,102.4281 8.71703,22.33638 -18.31268,5.3516"
       id="path1862" />
    <path
       style="fill:none;stroke:#000000;stroke-width:1.32292;stroke-linecap:round;stroke-linejoin:round;stroke-miterlimit:4;stroke-dasharray:none;stroke-opacity:1"
       d="m 123.63788,103.88222 -6.01506,18.85225 15.9731,7.38161"
       id="path1864"
       sodipodi:nodetypes="ccc" />
    <path
       style="fill:none;stroke:#000000;stroke-width:1.32292;stroke-linecap:round;stroke-linejoin:miter;stroke-miterlimit:4;stroke-dasharray:none;stroke-opacity:1"
       d="m 143.99528,105.94026 -2.9421,-2.36485"
       id="path1868"
       sodipodi:nodetypes="cc" />
    <path
       style="fill:none;stroke:#000000;stroke-width:1.32292;stroke-linecap:round;stroke-linejoin:miter;stroke-miterlimit:4;stroke-dasharray:none;stroke-opacity:1"
       d="m 143.99528,105.94026 1.44508,-3.82049"
       id="path1868-1"
       sodipodi:nodetypes="cc" />
    <path
       style="fill:none;stroke:#000000;stroke-width:1.32292;stroke-linecap:round;stroke-linejoin:miter;stroke-miterlimit:4;stroke-dasharray:none;stroke-opacity:1"
       d="m 123.15997,107.80644 3.20584,-3.02239"
       id="path1899"
       sodipodi:nodetypes="cc" />
    <path
       style="fill:none;stroke:#000000;stroke-width:1.32292;stroke-linecap:round;stroke-linejoin:miter;stroke-miterlimit:4;stroke-dasharray:none;stroke-opacity:1"
       d="m 121.90929,109.36097 -0.93182,-5.49484"
       id="path1899-6"
       sodipodi:nodetypes="cc" />
    <path
       id="path18"
       style="fill:#cccccc;fill-rule:evenodd;stroke:#1f211d;stroke-width:1.29355;stroke-linejoin:round"
       d="m 390.07822,128.39006 c 0,0 2.19253,-36.478766 2.36095,-63.162001 0.16915,-26.683234 -2.86701,-57.0826404 -2.86701,-57.0826404 0,0 -33.73594,-1.1821773 -70.84399,-2.0267563 -37.10935,-0.8445789 -70.17138,2.7020185 -70.50768,4.0534477 -0.33766,1.350589 -3.20462,34.95893 -4.55436,60.966967 -1.34976,26.007388 -0.84367,54.379913 -0.84367,54.379913 0,0 31.54285,7.09345 70.33952,6.7552 38.79541,-0.33764 76.9169,-3.88419 76.9169,-3.88419 z"
       inkscape:connector-curvature="0" />
    <path
       id="path20"
       style="fill:#ffffff;fill-rule:evenodd;stroke:#1f211d;stroke-width:1.29355;stroke-linejoin:round"
       d="m 381.64474,110.32012 c 0,0 2.02416,-19.928667 2.02416,-45.59846 0,-25.670437 -1.6865,-47.287749 -1.6865,-47.287749 0,0 -22.77174,-1.857505 -63.2545,-3.039682 -40.48274,-1.182178 -64.09718,0.844514 -64.09718,0.844514 0,0 0.33679,20.603869 -0.84368,41.545338 -1.18043,20.942117 -0.84367,50.157989 -0.84367,50.157989 0,0 38.7967,6.0802 67.47447,4.56036 28.67584,-1.51984 61.2302,-1.18218 61.2302,-1.18218 z"
       inkscape:connector-curvature="0" />
    <path
       id="path22"
       style="fill:none;fill-rule:evenodd;stroke:#1f211d;stroke-width:1.29355;stroke-linejoin:round"
       d="m 378.10707,125.18223 1.01206,-6.75521 c 0,0 -12.81903,-0.5069 -14.00064,0.33765 -1.18041,0.84451 0.50603,7.26225 0.50603,7.26225 l 12.48277,-0.84452 z"
       inkscape:connector-curvature="0" />
    <path
       id="path76"
       style="fill:#333333;fill-opacity:1;fill-rule:evenodd;stroke:#1f211d;stroke-width:0.64687;stroke-linejoin:round"
       d="m 378.33341,107.83664 c 0,0 1.91881,-18.886772 1.91881,-43.215226 0,-24.328449 -1.59925,-44.816551 -1.59925,-44.816551 0,0 -21.58109,-1.760752 -59.94834,-2.880778 -38.36725,-1.120026 -60.74773,0.800536 -60.74773,0.800536 0,0 0.31953,19.526399 -0.79963,39.373581 -1.11827,19.847832 -0.79879,47.537388 -0.79879,47.537388 0,0 36.76787,5.76156 63.94457,4.3212 27.17668,-1.44042 58.03012,-1.12002 58.03012,-1.12002 z"
       inkscape:connector-curvature="0" />
    <g
       id="g2169"
       transform="translate(3.7041671,21.695841)">
      <path
         style="fill:none;stroke:#000000;stroke-width:0.529167;stroke-linecap:butt;stroke-linejoin:miter;stroke-miterlimit:4;stroke-dasharray:none;stroke-opacity:1"
         d="m 177.45007,6.217847 28.25021,-2.937436 1.49954,27.403181 -28.11198,2.569933 z"
         id="path833" />
      <text
         xml:space="preserve"
         id="text835"
         style="font-size:8.46667px;line-height:1.25;font-family:sans-serif;letter-spacing:0px;word-spacing:0px;white-space:pre;shape-inside:url(#rect837);"
         transform="rotate(-8.6130407,-133.61083,-965.77559)"><tspan
           x="31.111328"
           y="53.821097"><tspan
             style="font-style:normal;font-variant:normal;font-weight:normal;font-stretch:normal;font-size:8.46667px;font-family:'Comic Sans MS';-inkscape-font-specification:'Comic Sans MS'">2002</tspan></tspan></text>
      <path
         style="fill:none;stroke:#000000;stroke-width:0.264583px;stroke-linecap:butt;stroke-linejoin:miter;stroke-opacity:1"
         d="m 181.49843,20.005334 21.61124,-2.609934 1.20737,11.174915 -21.72944,2.247993 z"
         id="path841"
         sodipodi:nodetypes="ccccc" />
      <rect
         style="fill:#808080;stroke-width:0.529167;stroke-linecap:square;stroke-linejoin:bevel;stroke-miterlimit:4;stroke-dasharray:none"
         id="rect843"
         width="2.8957951"
         height="1.7799041"
         x="179.6812"
         y="42.907681"
         transform="rotate(-6.7643292)" />
      <rect
         style="fill:#808080;stroke-width:0.529167;stroke-linecap:square;stroke-linejoin:bevel;stroke-miterlimit:4;stroke-dasharray:none"
         id="rect843-3"
         width="2.8957951"
         height="1.7799041"
         x="184.44406"
         y="42.855652"
         transform="rotate(-6.7643292)" />
      <rect
         style="fill:#808080;stroke-width:0.529167;stroke-linecap:square;stroke-linejoin:bevel;stroke-miterlimit:4;stroke-dasharray:none"
         id="rect843-3-6"
         width="2.8957951"
         height="1.7799041"
         x="189.18427"
         y="42.783428"
         transform="rotate(-6.7643292)" />
      <rect
         style="fill:#808080;stroke-width:0.529167;stroke-linecap:square;stroke-linejoin:bevel;stroke-miterlimit:4;stroke-dasharray:none"
         id="rect843-3-7"
         width="2.8957951"
         height="1.7799041"
         x="194.39209"
         y="42.690662"
         transform="rotate(-6.7643292)" />
      <rect
         style="fill:#808080;stroke-width:0.529167;stroke-linecap:square;stroke-linejoin:bevel;stroke-miterlimit:4;stroke-dasharray:none"
         id="rect843-3-5"
         width="2.8957951"
         height="1.7799041"
         x="179.70059"
         y="46.217594"
         transform="rotate(-6.7643292)" />
      <rect
         style="fill:#808080;stroke-width:0.529167;stroke-linecap:square;stroke-linejoin:bevel;stroke-miterlimit:4;stroke-dasharray:none"
         id="rect843-3-3"
         width="2.8957951"
         height="1.7799041"
         x="184.60281"
         y="46.019985"
         transform="rotate(-6.7643292)" />
      <rect
         style="fill:#808080;stroke-width:0.529167;stroke-linecap:square;stroke-linejoin:bevel;stroke-miterlimit:4;stroke-dasharray:none"
         id="rect843-3-56"
         width="2.8957951"
         height="1.7799041"
         x="189.27678"
         y="46.025562"
         transform="rotate(-6.7643292)" />
      <rect
         style="fill:#808080;stroke-width:0.529167;stroke-linecap:square;stroke-linejoin:bevel;stroke-miterlimit:4;stroke-dasharray:none"
         id="rect843-3-2"
         width="2.8957951"
         height="1.7799041"
         x="194.54742"
         y="46.054783"
         transform="rotate(-6.7643292)" />
      <rect
         style="fill:#808080;stroke-width:0.529167;stroke-linecap:square;stroke-linejoin:bevel;stroke-miterlimit:4;stroke-dasharray:none"
         id="rect843-3-9"
         width="2.8957951"
         height="1.7799041"
         x="180.12889"
         y="49.414005"
         transform="rotate(-6.7643292)" />
      <rect
         style="fill:#808080;stroke-width:0.529167;stroke-linecap:square;stroke-linejoin:bevel;stroke-miterlimit:4;stroke-dasharray:none"
         id="rect843-3-1"
         width="2.8957951"
         height="1.7799041"
         x="184.86598"
         y="49.186069"
         transform="rotate(-6.7643292)" />
      <rect
         style="fill:#808080;stroke-width:0.529167;stroke-linecap:square;stroke-linejoin:bevel;stroke-miterlimit:4;stroke-dasharray:none"
         id="rect843-3-27"
         width="2.8957951"
         height="1.7799041"
         x="189.65825"
         y="48.984417"
         transform="rotate(-6.7643292)" />
      <rect
         style="fill:#808080;stroke-width:0.529167;stroke-linecap:square;stroke-linejoin:bevel;stroke-miterlimit:4;stroke-dasharray:none"
         id="rect843-3-0"
         width="2.8957951"
         height="1.7799041"
         x="194.80779"
         y="48.975468"
         transform="rotate(-6.7643292)" />
      <ellipse
         style="fill:#000000;fill-opacity:1;stroke:none;stroke-width:1.32292;stroke-linecap:round;stroke-linejoin:round;stroke-miterlimit:4;stroke-dasharray:none;stroke-opacity:1"
         id="path2134"
         cx="191.97649"
         cy="6.3051958"
         rx="0.89130539"
         ry="0.9784801" />
    </g>
    <rect
       style="fill:none;fill-opacity:1;stroke:#000000;stroke-width:0.481988;stroke-linecap:round;stroke-linejoin:round;stroke-miterlimit:4;stroke-dasharray:none;stroke-opacity:1"
       id="rect2171"
       width="175.16911"
       height="139.5022"
       x="48.085239"
       y="-0.39744541" />
    <rect
       style="fill:none;fill-opacity:1;stroke:#000000;stroke-width:0.481988;stroke-linecap:round;stroke-linejoin:round;stroke-miterlimit:4;stroke-dasharray:none;stroke-opacity:1"
       id="rect2171-0"
       width="175.16911"
       height="139.5022"
       x="229.60426"
       y="-0.39744663" />
    <text
       xml:space="preserve"
       id="text2233"
       style="font-size:8.46667px;line-height:1.25;font-family:sans-serif;letter-spacing:0px;word-spacing:0px;white-space:pre;shape-inside:url(#rect2235);"
       transform="translate(-12.695822,-15.561725)"><tspan
         x="273.71875"
         y="43.825003"><tspan
           style="font-style:normal;font-variant:normal;font-weight:normal;font-stretch:normal;font-size:8.46667px;font-family:'DejaVu Sans Mono';-inkscape-font-specification:'DejaVu Sans Mono';fill:#00ff00">ftp&gt; open 72.52.64.58
</tspan></tspan><tspan
         x="273.71875"
         y="54.408339"><tspan
           style="font-style:normal;font-variant:normal;font-weight:normal;font-stretch:normal;font-size:8.46667px;font-family:'DejaVu Sans Mono';-inkscape-font-specification:'DejaVu Sans Mono';fill:#00ff00">put sqlite-2.2.1.tar
</tspan></tspan><tspan
         x="273.71875"
         y="64.991675"><tspan
           style="font-style:normal;font-variant:normal;font-weight:normal;font-stretch:normal;font-size:8.46667px;font-family:'DejaVu Sans Mono';-inkscape-font-specification:'DejaVu Sans Mono';fill:#00ff00">200 Command OK.
</tspan></tspan><tspan
         x="273.71875"
         y="75.575011"><tspan
           style="font-style:normal;font-variant:normal;font-weight:normal;font-stretch:normal;font-size:8.46667px;font-family:'DejaVu Sans Mono';-inkscape-font-specification:'DejaVu Sans Mono';fill:#00ff00">150 File OK.
</tspan></tspan><tspan
         x="273.71875"
         y="86.158346"><tspan
           style="font-style:normal;font-variant:normal;font-weight:normal;font-stretch:normal;font-size:8.46667px;font-family:'DejaVu Sans Mono';-inkscape-font-specification:'DejaVu Sans Mono';fill:#00ff00">226 /sqlite-2.2.1.tar
</tspan></tspan><tspan
         x="273.71875"
         y="96.741682"><tspan
           style="font-style:normal;font-variant:normal;font-weight:normal;font-stretch:normal;font-size:8.46667px;font-family:'DejaVu Sans Mono';-inkscape-font-specification:'DejaVu Sans Mono';fill:#00ff00">ftp: 606099 bytes sent
</tspan></tspan><tspan
         x="273.71875"
         y="107.32502"><tspan
           style="font-style:normal;font-variant:normal;font-weight:normal;font-stretch:normal;font-size:8.46667px;font-family:'DejaVu Sans Mono';-inkscape-font-specification:'DejaVu Sans Mono';fill:#00ff00">ftp&gt;</tspan></tspan></text>
    <g
       id="g992"
       transform="translate(-63.100929,109.37856)">
      <rect
         style="fill:#ffffff;fill-opacity:1;stroke:#cccccc;stroke-width:0.788758;stroke-linecap:round;stroke-linejoin:round;stroke-miterlimit:4;stroke-dasharray:none;stroke-opacity:1"
         id="rect2193"
         width="106.25723"
         height="31.091576"
         x="330.51746"
         y="-57.011475" />
      <text
         xml:space="preserve"
         id="text2195"
         style="font-size:6.35px;line-height:1.25;font-family:sans-serif;letter-spacing:0px;word-spacing:0px;white-space:pre;shape-inside:url(#rect2197);"
         x="111.12206"
         y="0"
         transform="translate(208.37404,59.35743)"><tspan
           x="124.37305"
           y="-98.905176"><tspan
             style="font-style:normal;font-variant:normal;font-weight:bold;font-stretch:normal;font-size:6.35px;font-family:'Comic Sans MS';-inkscape-font-specification:'Comic Sans MS Bold'">From: Future
</tspan></tspan><tspan
           x="124.37305"
           y="-90.866731"><tspan
             style="font-style:normal;font-variant:normal;font-weight:bold;font-stretch:normal;font-size:6.35px;font-family:'Comic Sans MS';-inkscape-font-specification:'Comic Sans MS Bold'">Subject: Critique of sqlite-2.2.1</tspan></tspan></text>
      <rect
         style="fill:#cccccc;fill-opacity:1;stroke:none;stroke-width:0.568063;stroke-linecap:round;stroke-linejoin:round;stroke-miterlimit:4;stroke-dasharray:none;stroke-opacity:1"
         id="rect2220"
         width="105.92514"
         height="8.9813557"
         x="330.50293"
         y="-57.014542" />
      <text
         xml:space="preserve"
         id="text2214"
         style="font-size:5.64444px;line-height:1.25;font-family:sans-serif;letter-spacing:0px;word-spacing:0px;white-space:pre;shape-inside:url(#rect2216);"
         transform="translate(72.552442,-36.355253)"><tspan
           x="284.52344"
           y="-14.310681"><tspan
             style="font-style:normal;font-variant:normal;font-weight:bold;font-stretch:normal;font-size:5.64444px;font-family:'Comic Sans MS';-inkscape-font-specification:'Comic Sans MS Bold'">New Email Received</tspan></tspan></text>
      <g
         id="g2322"
         transform="translate(73.073654,-228.96966)">
        <path
           style="fill:none;stroke:#4d4d4d;stroke-width:0.264583px;stroke-linecap:butt;stroke-linejoin:miter;stroke-opacity:1"
           d="m 357.49481,174.5592 3.3882,3.3882"
           id="path2316" />
        <path
           style="fill:none;stroke:#4d4d4d;stroke-width:0.264583px;stroke-linecap:butt;stroke-linejoin:miter;stroke-opacity:1"
           d="m 360.85096,174.5509 -3.36241,3.44686"
           id="path2318"
           sodipodi:nodetypes="cc" />
      </g>
    </g>
    <rect
       style="fill:#cccccc;fill-opacity:1;stroke:none;stroke-width:0.681123;stroke-linecap:round;stroke-linejoin:round;stroke-miterlimit:4;stroke-dasharray:none;stroke-opacity:1"
       id="rect2337"
       width="174.6666"
       height="22.347778"
       x="48.34"
       y="-0.169" />
    <text
       xml:space="preserve"
       id="text2339"
       style="font-size:7.05556px;line-height:1.25;font-family:sans-serif;letter-spacing:0px;word-spacing:0px;white-space:pre;shape-inside:url(#rect2341);"
       transform="translate(1.5875,2.1166667)"><tspan
         x="48.339844"
         y="6.0725952"><tspan
           style="font-style:normal;font-variant:normal;font-weight:normal;font-stretch:normal;font-size:7.05556px;font-family:'Comic Sans MS';-inkscape-font-specification:'Comic Sans MS'">drh received a baffling and mind bending email from </tspan></tspan><tspan
         x="48.339844"
         y="15.081697"><tspan
           style="font-style:normal;font-variant:normal;font-weight:normal;font-stretch:normal;font-size:7.05556px;font-family:'Comic Sans MS';-inkscape-font-specification:'Comic Sans MS'">the future after he released sqlite version 2.2.1</tspan></tspan></text>
  </g>
</svg>
